<mxfile host="app.diagrams.net" modified="2021-06-07T02:32:43.537Z" agent="5.0 (X11; Linux x86_64) AppleWebKit/537.36 (KHTML, like Gecko) Chrome/90.0.4430.212 Safari/537.36" etag="ospNciBoerqCGfwqwQpf" version="14.7.6" type="github">
  <diagram id="C5RBs43oDa-KdzZeNtuy" name="Page-1">
    <mxGraphModel dx="1326" dy="666" grid="1" gridSize="10" guides="1" tooltips="1" connect="1" arrows="1" fold="1" page="1" pageScale="1" pageWidth="827" pageHeight="1169" math="0" shadow="0">
      <root>
        <mxCell id="WIyWlLk6GJQsqaUBKTNV-0" />
        <mxCell id="WIyWlLk6GJQsqaUBKTNV-1" parent="WIyWlLk6GJQsqaUBKTNV-0" />
        <mxCell id="SPJmeu38JArN2D9jmiuA-0" value="Browser Home Page&lt;br&gt;(react app" style="rounded=1;whiteSpace=wrap;html=1;" vertex="1" parent="WIyWlLk6GJQsqaUBKTNV-1">
          <mxGeometry x="70" y="110" width="120" height="60" as="geometry" />
        </mxCell>
        <mxCell id="SPJmeu38JArN2D9jmiuA-1" value="" style="shape=flexArrow;endArrow=classic;html=1;width=6;endSize=7.33;" edge="1" parent="WIyWlLk6GJQsqaUBKTNV-1" source="SPJmeu38JArN2D9jmiuA-3">
          <mxGeometry width="50" height="50" relative="1" as="geometry">
            <mxPoint x="129.5" y="210" as="sourcePoint" />
            <mxPoint x="129.6111111111111" y="170" as="targetPoint" />
          </mxGeometry>
        </mxCell>
        <mxCell id="SPJmeu38JArN2D9jmiuA-3" value="Database&lt;br&gt;api" style="shape=cylinder3;whiteSpace=wrap;html=1;boundedLbl=1;backgroundOutline=1;size=15;" vertex="1" parent="WIyWlLk6GJQsqaUBKTNV-1">
          <mxGeometry x="100" y="270" width="60" height="80" as="geometry" />
        </mxCell>
        <mxCell id="SPJmeu38JArN2D9jmiuA-4" value="Get/Projects" style="text;html=1;strokeColor=none;fillColor=none;align=center;verticalAlign=middle;whiteSpace=wrap;rounded=0;" vertex="1" parent="WIyWlLk6GJQsqaUBKTNV-1">
          <mxGeometry x="109.5" y="240" width="40" height="20" as="geometry" />
        </mxCell>
        <mxCell id="SPJmeu38JArN2D9jmiuA-5" value="Registration - Profile&lt;br&gt;(react app" style="rounded=1;whiteSpace=wrap;html=1;" vertex="1" parent="WIyWlLk6GJQsqaUBKTNV-1">
          <mxGeometry x="260" y="110" width="120" height="60" as="geometry" />
        </mxCell>
        <mxCell id="SPJmeu38JArN2D9jmiuA-7" value="Database&lt;br&gt;api" style="shape=cylinder3;whiteSpace=wrap;html=1;boundedLbl=1;backgroundOutline=1;size=15;" vertex="1" parent="WIyWlLk6GJQsqaUBKTNV-1">
          <mxGeometry x="290" y="270" width="60" height="80" as="geometry" />
        </mxCell>
        <mxCell id="SPJmeu38JArN2D9jmiuA-8" value="POST/Users" style="text;html=1;strokeColor=none;fillColor=none;align=center;verticalAlign=middle;whiteSpace=wrap;rounded=0;" vertex="1" parent="WIyWlLk6GJQsqaUBKTNV-1">
          <mxGeometry x="341" y="220" width="40" height="20" as="geometry" />
        </mxCell>
        <mxCell id="SPJmeu38JArN2D9jmiuA-10" value="" style="endArrow=classic;html=1;exitX=1;exitY=0.5;exitDx=0;exitDy=0;entryX=0;entryY=0.5;entryDx=0;entryDy=0;" edge="1" parent="WIyWlLk6GJQsqaUBKTNV-1" source="SPJmeu38JArN2D9jmiuA-0" target="SPJmeu38JArN2D9jmiuA-13">
          <mxGeometry width="50" height="50" relative="1" as="geometry">
            <mxPoint x="210" y="190" as="sourcePoint" />
            <mxPoint x="260" y="140" as="targetPoint" />
          </mxGeometry>
        </mxCell>
        <mxCell id="SPJmeu38JArN2D9jmiuA-12" value="" style="shape=flexArrow;endArrow=classic;html=1;" edge="1" parent="WIyWlLk6GJQsqaUBKTNV-1">
          <mxGeometry width="50" height="50" relative="1" as="geometry">
            <mxPoint x="320" y="170" as="sourcePoint" />
            <mxPoint x="319.5" y="270" as="targetPoint" />
          </mxGeometry>
        </mxCell>
        <mxCell id="SPJmeu38JArN2D9jmiuA-13" value="Login (react app" style="rounded=1;whiteSpace=wrap;html=1;" vertex="1" parent="WIyWlLk6GJQsqaUBKTNV-1">
          <mxGeometry x="414" y="110" width="120" height="60" as="geometry" />
        </mxCell>
        <mxCell id="SPJmeu38JArN2D9jmiuA-14" value="Database&lt;br&gt;api" style="shape=cylinder3;whiteSpace=wrap;html=1;boundedLbl=1;backgroundOutline=1;size=15;" vertex="1" parent="WIyWlLk6GJQsqaUBKTNV-1">
          <mxGeometry x="444" y="270" width="60" height="80" as="geometry" />
        </mxCell>
        <mxCell id="SPJmeu38JArN2D9jmiuA-15" value="Get/Users" style="text;html=1;strokeColor=none;fillColor=none;align=center;verticalAlign=middle;whiteSpace=wrap;rounded=0;" vertex="1" parent="WIyWlLk6GJQsqaUBKTNV-1">
          <mxGeometry x="494" y="220" width="40" height="20" as="geometry" />
        </mxCell>
        <mxCell id="SPJmeu38JArN2D9jmiuA-19" value="" style="shape=flexArrow;endArrow=classic;html=1;width=6;endSize=7.33;" edge="1" parent="WIyWlLk6GJQsqaUBKTNV-1">
          <mxGeometry width="50" height="50" relative="1" as="geometry">
            <mxPoint x="473.7788888888889" y="270" as="sourcePoint" />
            <mxPoint x="473.5011111111111" y="170" as="targetPoint" />
          </mxGeometry>
        </mxCell>
        <mxCell id="SPJmeu38JArN2D9jmiuA-21" value="" style="endArrow=classic;startArrow=classic;html=1;exitX=1;exitY=0.5;exitDx=0;exitDy=0;" edge="1" parent="WIyWlLk6GJQsqaUBKTNV-1" source="SPJmeu38JArN2D9jmiuA-5">
          <mxGeometry width="50" height="50" relative="1" as="geometry">
            <mxPoint x="370" y="210" as="sourcePoint" />
            <mxPoint x="410" y="140" as="targetPoint" />
          </mxGeometry>
        </mxCell>
        <mxCell id="SPJmeu38JArN2D9jmiuA-22" value="Project Listing (react app" style="rounded=1;whiteSpace=wrap;html=1;" vertex="1" parent="WIyWlLk6GJQsqaUBKTNV-1">
          <mxGeometry x="580" y="110" width="120" height="60" as="geometry" />
        </mxCell>
        <mxCell id="SPJmeu38JArN2D9jmiuA-23" value="Database&lt;br&gt;api" style="shape=cylinder3;whiteSpace=wrap;html=1;boundedLbl=1;backgroundOutline=1;size=15;" vertex="1" parent="WIyWlLk6GJQsqaUBKTNV-1">
          <mxGeometry x="610" y="270" width="60" height="80" as="geometry" />
        </mxCell>
        <mxCell id="SPJmeu38JArN2D9jmiuA-24" value="Get/Users-Skill-Projects" style="text;html=1;strokeColor=none;fillColor=none;align=center;verticalAlign=middle;whiteSpace=wrap;rounded=0;" vertex="1" parent="WIyWlLk6GJQsqaUBKTNV-1">
          <mxGeometry x="660" y="220" width="40" height="20" as="geometry" />
        </mxCell>
        <mxCell id="SPJmeu38JArN2D9jmiuA-25" value="" style="shape=flexArrow;endArrow=classic;html=1;width=6;endSize=7.33;" edge="1" parent="WIyWlLk6GJQsqaUBKTNV-1">
          <mxGeometry width="50" height="50" relative="1" as="geometry">
            <mxPoint x="639.778888888889" y="270" as="sourcePoint" />
            <mxPoint x="639.5011111111112" y="170" as="targetPoint" />
          </mxGeometry>
        </mxCell>
        <mxCell id="SPJmeu38JArN2D9jmiuA-26" value="" style="endArrow=classic;html=1;exitX=1;exitY=0.5;exitDx=0;exitDy=0;entryX=0;entryY=0.5;entryDx=0;entryDy=0;" edge="1" parent="WIyWlLk6GJQsqaUBKTNV-1" source="SPJmeu38JArN2D9jmiuA-13" target="SPJmeu38JArN2D9jmiuA-22">
          <mxGeometry width="50" height="50" relative="1" as="geometry">
            <mxPoint x="530" y="170" as="sourcePoint" />
            <mxPoint x="580" y="120" as="targetPoint" />
          </mxGeometry>
        </mxCell>
        <mxCell id="SPJmeu38JArN2D9jmiuA-27" value="Project Description (react app" style="rounded=1;whiteSpace=wrap;html=1;" vertex="1" parent="WIyWlLk6GJQsqaUBKTNV-1">
          <mxGeometry x="590" y="440" width="120" height="60" as="geometry" />
        </mxCell>
        <mxCell id="SPJmeu38JArN2D9jmiuA-28" value="Database&lt;br&gt;api" style="shape=cylinder3;whiteSpace=wrap;html=1;boundedLbl=1;backgroundOutline=1;size=15;" vertex="1" parent="WIyWlLk6GJQsqaUBKTNV-1">
          <mxGeometry x="620" y="600" width="60" height="80" as="geometry" />
        </mxCell>
        <mxCell id="SPJmeu38JArN2D9jmiuA-29" value="Get/Users-Skill-Projects" style="text;html=1;strokeColor=none;fillColor=none;align=center;verticalAlign=middle;whiteSpace=wrap;rounded=0;" vertex="1" parent="WIyWlLk6GJQsqaUBKTNV-1">
          <mxGeometry x="670" y="550" width="40" height="20" as="geometry" />
        </mxCell>
        <mxCell id="SPJmeu38JArN2D9jmiuA-30" value="" style="shape=flexArrow;endArrow=classic;html=1;width=6;endSize=7.33;" edge="1" parent="WIyWlLk6GJQsqaUBKTNV-1">
          <mxGeometry width="50" height="50" relative="1" as="geometry">
            <mxPoint x="649.778888888889" y="600" as="sourcePoint" />
            <mxPoint x="649.5011111111112" y="500" as="targetPoint" />
          </mxGeometry>
        </mxCell>
        <mxCell id="SPJmeu38JArN2D9jmiuA-31" value="" style="endArrow=classic;html=1;entryX=1;entryY=0.5;entryDx=0;entryDy=0;" edge="1" parent="WIyWlLk6GJQsqaUBKTNV-1" target="SPJmeu38JArN2D9jmiuA-27">
          <mxGeometry width="50" height="50" relative="1" as="geometry">
            <mxPoint x="700" y="140" as="sourcePoint" />
            <mxPoint x="760" y="460" as="targetPoint" />
            <Array as="points">
              <mxPoint x="760" y="140" />
              <mxPoint x="760" y="470" />
            </Array>
          </mxGeometry>
        </mxCell>
        <mxCell id="SPJmeu38JArN2D9jmiuA-32" value="" style="endArrow=classic;html=1;exitX=1;exitY=0.75;exitDx=0;exitDy=0;entryX=1;entryY=0.5;entryDx=0;entryDy=0;" edge="1" parent="WIyWlLk6GJQsqaUBKTNV-1" source="SPJmeu38JArN2D9jmiuA-0" target="SPJmeu38JArN2D9jmiuA-33">
          <mxGeometry width="50" height="50" relative="1" as="geometry">
            <mxPoint x="390" y="390" as="sourcePoint" />
            <mxPoint x="440" y="340" as="targetPoint" />
            <Array as="points">
              <mxPoint x="230" y="155" />
              <mxPoint x="230" y="360" />
              <mxPoint x="230" y="410" />
            </Array>
          </mxGeometry>
        </mxCell>
        <mxCell id="SPJmeu38JArN2D9jmiuA-33" value="Project Description w/0 messages (react app" style="rounded=1;whiteSpace=wrap;html=1;" vertex="1" parent="WIyWlLk6GJQsqaUBKTNV-1">
          <mxGeometry x="80" y="380" width="120" height="60" as="geometry" />
        </mxCell>
        <mxCell id="SPJmeu38JArN2D9jmiuA-34" value="Database&lt;br&gt;api" style="shape=cylinder3;whiteSpace=wrap;html=1;boundedLbl=1;backgroundOutline=1;size=15;" vertex="1" parent="WIyWlLk6GJQsqaUBKTNV-1">
          <mxGeometry x="110" y="540" width="60" height="80" as="geometry" />
        </mxCell>
        <mxCell id="SPJmeu38JArN2D9jmiuA-36" value="" style="shape=flexArrow;endArrow=classic;html=1;width=6;endSize=7.33;" edge="1" parent="WIyWlLk6GJQsqaUBKTNV-1">
          <mxGeometry width="50" height="50" relative="1" as="geometry">
            <mxPoint x="139.778888888889" y="540" as="sourcePoint" />
            <mxPoint x="139.5011111111112" y="440" as="targetPoint" />
          </mxGeometry>
        </mxCell>
        <mxCell id="SPJmeu38JArN2D9jmiuA-41" value="Get/Projects" style="text;html=1;strokeColor=none;fillColor=none;align=center;verticalAlign=middle;whiteSpace=wrap;rounded=0;" vertex="1" parent="WIyWlLk6GJQsqaUBKTNV-1">
          <mxGeometry x="140" y="490" width="40" height="20" as="geometry" />
        </mxCell>
        <mxCell id="SPJmeu38JArN2D9jmiuA-42" value="Join Request (react app" style="rounded=1;whiteSpace=wrap;html=1;" vertex="1" parent="WIyWlLk6GJQsqaUBKTNV-1">
          <mxGeometry x="414" y="440" width="120" height="60" as="geometry" />
        </mxCell>
        <mxCell id="SPJmeu38JArN2D9jmiuA-43" value="Database&lt;br&gt;api" style="shape=cylinder3;whiteSpace=wrap;html=1;boundedLbl=1;backgroundOutline=1;size=15;" vertex="1" parent="WIyWlLk6GJQsqaUBKTNV-1">
          <mxGeometry x="444" y="600" width="60" height="80" as="geometry" />
        </mxCell>
        <mxCell id="SPJmeu38JArN2D9jmiuA-44" value="Get/Users-Projects" style="text;html=1;strokeColor=none;fillColor=none;align=center;verticalAlign=middle;whiteSpace=wrap;rounded=0;" vertex="1" parent="WIyWlLk6GJQsqaUBKTNV-1">
          <mxGeometry x="494" y="550" width="40" height="20" as="geometry" />
        </mxCell>
        <mxCell id="SPJmeu38JArN2D9jmiuA-45" value="" style="shape=flexArrow;endArrow=classic;html=1;width=6;endSize=7.33;" edge="1" parent="WIyWlLk6GJQsqaUBKTNV-1">
          <mxGeometry width="50" height="50" relative="1" as="geometry">
            <mxPoint x="473.778888888889" y="600" as="sourcePoint" />
            <mxPoint x="473.5011111111112" y="500" as="targetPoint" />
          </mxGeometry>
        </mxCell>
        <mxCell id="SPJmeu38JArN2D9jmiuA-46" value="" style="endArrow=classic;html=1;entryX=1;entryY=0.5;entryDx=0;entryDy=0;" edge="1" parent="WIyWlLk6GJQsqaUBKTNV-1" source="SPJmeu38JArN2D9jmiuA-27" target="SPJmeu38JArN2D9jmiuA-42">
          <mxGeometry width="50" height="50" relative="1" as="geometry">
            <mxPoint x="534" y="440" as="sourcePoint" />
            <mxPoint x="484" y="490" as="targetPoint" />
          </mxGeometry>
        </mxCell>
        <mxCell id="SPJmeu38JArN2D9jmiuA-50" value="Project description w. messages (react app" style="rounded=1;whiteSpace=wrap;html=1;" vertex="1" parent="WIyWlLk6GJQsqaUBKTNV-1">
          <mxGeometry x="238" y="440" width="120" height="60" as="geometry" />
        </mxCell>
        <mxCell id="SPJmeu38JArN2D9jmiuA-51" value="Database&lt;br&gt;api" style="shape=cylinder3;whiteSpace=wrap;html=1;boundedLbl=1;backgroundOutline=1;size=15;" vertex="1" parent="WIyWlLk6GJQsqaUBKTNV-1">
          <mxGeometry x="268" y="600" width="60" height="80" as="geometry" />
        </mxCell>
        <mxCell id="SPJmeu38JArN2D9jmiuA-52" value="POST/Get/Users-Projects-message" style="text;html=1;strokeColor=none;fillColor=none;align=center;verticalAlign=middle;whiteSpace=wrap;rounded=0;" vertex="1" parent="WIyWlLk6GJQsqaUBKTNV-1">
          <mxGeometry x="318" y="550" width="40" height="20" as="geometry" />
        </mxCell>
        <mxCell id="SPJmeu38JArN2D9jmiuA-54" value="" style="endArrow=classic;html=1;entryX=1;entryY=0.5;entryDx=0;entryDy=0;" edge="1" parent="WIyWlLk6GJQsqaUBKTNV-1" target="SPJmeu38JArN2D9jmiuA-50">
          <mxGeometry width="50" height="50" relative="1" as="geometry">
            <mxPoint x="414" y="470" as="sourcePoint" />
            <mxPoint x="308" y="490" as="targetPoint" />
          </mxGeometry>
        </mxCell>
        <mxCell id="SPJmeu38JArN2D9jmiuA-55" value="Mentor Request (react app" style="rounded=1;whiteSpace=wrap;html=1;" vertex="1" parent="WIyWlLk6GJQsqaUBKTNV-1">
          <mxGeometry x="80" y="720" width="120" height="60" as="geometry" />
        </mxCell>
        <mxCell id="SPJmeu38JArN2D9jmiuA-56" value="Database&lt;br&gt;api" style="shape=cylinder3;whiteSpace=wrap;html=1;boundedLbl=1;backgroundOutline=1;size=15;" vertex="1" parent="WIyWlLk6GJQsqaUBKTNV-1">
          <mxGeometry x="110" y="880" width="60" height="80" as="geometry" />
        </mxCell>
        <mxCell id="SPJmeu38JArN2D9jmiuA-57" value="Get/Users-Projects" style="text;html=1;strokeColor=none;fillColor=none;align=center;verticalAlign=middle;whiteSpace=wrap;rounded=0;" vertex="1" parent="WIyWlLk6GJQsqaUBKTNV-1">
          <mxGeometry x="160" y="830" width="40" height="20" as="geometry" />
        </mxCell>
        <mxCell id="SPJmeu38JArN2D9jmiuA-58" value="" style="shape=flexArrow;endArrow=classic;html=1;width=6;endSize=7.33;" edge="1" parent="WIyWlLk6GJQsqaUBKTNV-1">
          <mxGeometry width="50" height="50" relative="1" as="geometry">
            <mxPoint x="139.778888888889" y="880" as="sourcePoint" />
            <mxPoint x="139.5011111111112" y="780" as="targetPoint" />
          </mxGeometry>
        </mxCell>
        <mxCell id="SPJmeu38JArN2D9jmiuA-65" value="" style="endArrow=classic;startArrow=classic;html=1;exitX=0.417;exitY=0;exitDx=0;exitDy=0;exitPerimeter=0;entryX=0;entryY=0.5;entryDx=0;entryDy=0;" edge="1" parent="WIyWlLk6GJQsqaUBKTNV-1" source="SPJmeu38JArN2D9jmiuA-55" target="SPJmeu38JArN2D9jmiuA-50">
          <mxGeometry width="50" height="50" relative="1" as="geometry">
            <mxPoint x="390" y="710" as="sourcePoint" />
            <mxPoint x="440" y="660" as="targetPoint" />
            <Array as="points">
              <mxPoint x="130" y="680" />
              <mxPoint x="200" y="680" />
              <mxPoint x="200" y="470" />
            </Array>
          </mxGeometry>
        </mxCell>
        <mxCell id="SPJmeu38JArN2D9jmiuA-67" value="" style="shape=flexArrow;endArrow=classic;startArrow=classic;html=1;entryX=0.5;entryY=1;entryDx=0;entryDy=0;" edge="1" parent="WIyWlLk6GJQsqaUBKTNV-1" source="SPJmeu38JArN2D9jmiuA-51" target="SPJmeu38JArN2D9jmiuA-50">
          <mxGeometry width="100" height="100" relative="1" as="geometry">
            <mxPoint x="360" y="680" as="sourcePoint" />
            <mxPoint x="460" y="580" as="targetPoint" />
          </mxGeometry>
        </mxCell>
        <mxCell id="SPJmeu38JArN2D9jmiuA-68" value="New Project (react app" style="rounded=1;whiteSpace=wrap;html=1;" vertex="1" parent="WIyWlLk6GJQsqaUBKTNV-1">
          <mxGeometry x="590" y="710" width="120" height="60" as="geometry" />
        </mxCell>
        <mxCell id="SPJmeu38JArN2D9jmiuA-69" value="Database&lt;br&gt;api" style="shape=cylinder3;whiteSpace=wrap;html=1;boundedLbl=1;backgroundOutline=1;size=15;" vertex="1" parent="WIyWlLk6GJQsqaUBKTNV-1">
          <mxGeometry x="620" y="870" width="60" height="80" as="geometry" />
        </mxCell>
        <mxCell id="SPJmeu38JArN2D9jmiuA-70" value="POST/Users-Projects" style="text;html=1;strokeColor=none;fillColor=none;align=center;verticalAlign=middle;whiteSpace=wrap;rounded=0;" vertex="1" parent="WIyWlLk6GJQsqaUBKTNV-1">
          <mxGeometry x="670" y="820" width="40" height="20" as="geometry" />
        </mxCell>
        <mxCell id="SPJmeu38JArN2D9jmiuA-71" value="" style="shape=flexArrow;endArrow=classic;html=1;width=6;endSize=7.33;" edge="1" parent="WIyWlLk6GJQsqaUBKTNV-1">
          <mxGeometry width="50" height="50" relative="1" as="geometry">
            <mxPoint x="649.5011111111112" y="770" as="sourcePoint" />
            <mxPoint x="649.778888888889" y="870" as="targetPoint" />
          </mxGeometry>
        </mxCell>
        <mxCell id="SPJmeu38JArN2D9jmiuA-73" value="" style="endArrow=classic;html=1;entryX=1;entryY=0.5;entryDx=0;entryDy=0;" edge="1" parent="WIyWlLk6GJQsqaUBKTNV-1" target="SPJmeu38JArN2D9jmiuA-68">
          <mxGeometry width="50" height="50" relative="1" as="geometry">
            <mxPoint x="760" y="460" as="sourcePoint" />
            <mxPoint x="440" y="490" as="targetPoint" />
            <Array as="points">
              <mxPoint x="760" y="740" />
            </Array>
          </mxGeometry>
        </mxCell>
      </root>
    </mxGraphModel>
  </diagram>
</mxfile>
